/* XPM */
static char *greenlight[] = {
/* columns rows colors chars-per-pixel */
"32 32 50 1 ",
"  c #000000",
". c #000100",
"X c #010100",
"o c #010001",
"O c #000200",
"+ c #010201",
"@ c #020002",
"# c #020202",
"$ c #000700",
"% c #020402",
"& c #060606",
"* c #000A00",
"= c #000D00",
"- c #000D01",
"; c #000E00",
": c #011900",
"> c #011A00",
", c #041A03",
"< c #021D01",
"1 c #052B02",
"2 c #013400",
"3 c #063804",
"4 c #313131",
"5 c #004B00",
"6 c #015D00",
"7 c #0E580A",
"8 c #007400",
"9 c #176E11",
"0 c #5B5D5B",
"q c #008B00",
"w c #058E03",
"e c #009A00",
"r c #00B100",
"t c #00B900",
"y c #0CBF09",
"u c #00D000",
"i c #00DD00",
"p c #1DCE1B",
"a c #2EF82C",
"s c #39E536",
"d c #57CE55",
"f c #55F454",
"g c #7FDF6E",
"h c #6FFE6C",
"j c #8CF64C",
"k c #86FF6F",
"l c #80EC7F",
"z c #AEF4A7",
"x c #CDEF9C",
"c c #C9EEB2",
/* pixels */
"            .# 40& X            ",
"           . %1793, .           ",
"          . :quite82            ",
"         . <rahkjgdy6o          ",
"         . >wslcxzfp5+          ",
"             $;;-=*O            ",
"           .O@o   @oO           ",
"             ..XXX..            ",
"                                ",
"                                ",
"                                ",
"                                ",
"                                ",
"                                ",
"                                ",
"                                ",
"                                ",
"                                ",
"                                ",
"                                ",
"                                ",
"                                ",
"                                ",
"                                ",
"                                ",
"                                ",
"                                ",
"                                ",
"                                ",
"                                ",
"                                ",
"                                "
};
